# xmcd
#
# Track frame offsets:
#	150
#	16665
#	35768
#	55778
#	74553
#	92947
#	111672
#	129915
#	147108
#	167820
#	183763
#	201548
#	221623
#
# Disc length: 3278 seconds
#
# Revision: 1
# Processed by: cddbd v1.5.2PL0 Copyright (c) Steve Scherf et al.
# Submitted via: audiograbber 1.83.01
#
DISCID=c30ccc0d
DTITLE=a Glitterhouse compilation - The Empire Strikes Back!
DYEAR=1900
DGENRE=
TTITLE0=Washington - Vaults
TTITLE1=Ben Weaver - Wings As Knives
TTITLE2=The Walkabouts - Devil In The Details
TTITLE3=The Great Crusades - Hollywood Bungalow
TTITLE4=Hobotalk - Setting Fire To Flame
TTITLE5=Get Well Soon - If This Hat Is Missing I Have Gone Hunting
TTITLE6=Camphor - The Sweetest Tooth
TTITLE7=Lampshade - Joy
TTITLE8=The White Birch - Silent Love
TTITLE9=Hugo Race and True Spirit - On The Bright Side
TTITLE10=Dakota Suite - Over A Loveless Winter
TTITLE11=Lilium - The Trap
TTITLE12=Chris and Carla - Fly High Brave Dreamers 
EXTD=
EXTT0=
EXTT1=
EXTT2=
EXTT3=
EXTT4=
EXTT5=
EXTT6=
EXTT7=
EXTT8=
EXTT9=
EXTT10=
EXTT11=
EXTT12=
PLAYORDER=
